<mxfile host="app.diagrams.net" agent="Mozilla/5.0 (Macintosh; Intel Mac OS X 10_15_7) AppleWebKit/605.1.15 (KHTML, like Gecko) Version/18.5 Safari/605.1.15" version="28.1.1">
  <diagram name="Page-1" id="EZg02KS8jE5p3v1xLzpr">
    <mxGraphModel dx="2634" dy="1279" grid="1" gridSize="10" guides="1" tooltips="1" connect="1" arrows="1" fold="1" page="1" pageScale="1" pageWidth="850" pageHeight="1100" math="0" shadow="0">
      <root>
        <mxCell id="0" />
        <mxCell id="1" parent="0" />
        <mxCell id="L9gKy82ig1RwrwD83Heo-35" value="" style="rounded=0;whiteSpace=wrap;html=1;dashed=1;dashPattern=12 12;fillColor=#f5f5f5;fontColor=#333333;strokeColor=#666666;opacity=40;" parent="1" vertex="1">
          <mxGeometry x="386" y="530" width="532" height="100" as="geometry" />
        </mxCell>
        <mxCell id="L9gKy82ig1RwrwD83Heo-15" style="edgeStyle=orthogonalEdgeStyle;rounded=0;orthogonalLoop=1;jettySize=auto;html=1;exitX=1;exitY=0.5;exitDx=0;exitDy=0;entryX=0;entryY=0.5;entryDx=0;entryDy=0;" parent="1" source="L9gKy82ig1RwrwD83Heo-1" target="L9gKy82ig1RwrwD83Heo-2" edge="1">
          <mxGeometry relative="1" as="geometry" />
        </mxCell>
        <mxCell id="L9gKy82ig1RwrwD83Heo-1" value="&lt;font style=&quot;font-size: 14px;&quot;&gt;Train&lt;/font&gt;&lt;div&gt;&lt;font style=&quot;font-size: 14px;&quot;&gt;GraphMERT&lt;/font&gt;&lt;/div&gt;" style="rounded=1;whiteSpace=wrap;html=1;fillColor=#ffe6cc;strokeColor=#d79b00;" parent="1" vertex="1">
          <mxGeometry x="333" y="440" width="90" height="60" as="geometry" />
        </mxCell>
        <mxCell id="L9gKy82ig1RwrwD83Heo-16" style="edgeStyle=orthogonalEdgeStyle;rounded=0;orthogonalLoop=1;jettySize=auto;html=1;exitX=1;exitY=0.5;exitDx=0;exitDy=0;" parent="1" source="L9gKy82ig1RwrwD83Heo-2" target="L9gKy82ig1RwrwD83Heo-3" edge="1">
          <mxGeometry relative="1" as="geometry" />
        </mxCell>
        <mxCell id="L9gKy82ig1RwrwD83Heo-2" value="&lt;font style=&quot;font-size: 14px;&quot;&gt;Predict tails with&lt;/font&gt;&lt;div&gt;&lt;font style=&quot;font-size: 14px;&quot;&gt;&amp;nbsp;&lt;/font&gt;&lt;span style=&quot;font-size: 14px;&quot;&gt;GraphMERT&lt;/span&gt;&lt;/div&gt;" style="rounded=1;whiteSpace=wrap;html=1;fillColor=#ffe6cc;strokeColor=#d79b00;" parent="1" vertex="1">
          <mxGeometry x="449" y="440" width="100" height="60" as="geometry" />
        </mxCell>
        <mxCell id="L9gKy82ig1RwrwD83Heo-17" style="edgeStyle=orthogonalEdgeStyle;rounded=0;orthogonalLoop=1;jettySize=auto;html=1;exitX=1;exitY=0.5;exitDx=0;exitDy=0;entryX=0;entryY=0.5;entryDx=0;entryDy=0;" parent="1" source="L9gKy82ig1RwrwD83Heo-3" target="L9gKy82ig1RwrwD83Heo-4" edge="1">
          <mxGeometry relative="1" as="geometry" />
        </mxCell>
        <mxCell id="L9gKy82ig1RwrwD83Heo-3" value="&lt;font style=&quot;font-size: 14px;&quot;&gt;Combine tail tokens with LLM&lt;/font&gt;" style="rounded=1;whiteSpace=wrap;html=1;fillColor=#d5e8d4;strokeColor=#82b366;" parent="1" vertex="1">
          <mxGeometry x="581" y="440" width="90" height="60" as="geometry" />
        </mxCell>
        <mxCell id="L9gKy82ig1RwrwD83Heo-18" style="edgeStyle=orthogonalEdgeStyle;rounded=0;orthogonalLoop=1;jettySize=auto;html=1;exitX=1;exitY=0.5;exitDx=0;exitDy=0;entryX=0;entryY=0.5;entryDx=0;entryDy=0;" parent="1" source="L9gKy82ig1RwrwD83Heo-4" target="L9gKy82ig1RwrwD83Heo-5" edge="1">
          <mxGeometry relative="1" as="geometry" />
        </mxCell>
        <mxCell id="L9gKy82ig1RwrwD83Heo-4" value="&lt;font style=&quot;font-size: 14px;&quot;&gt;Similarity check (embedding-based)&lt;/font&gt;" style="rounded=1;whiteSpace=wrap;html=1;fillColor=#fff2cc;strokeColor=#d6b656;" parent="1" vertex="1">
          <mxGeometry x="698" y="440" width="110" height="60" as="geometry" />
        </mxCell>
        <mxCell id="L9gKy82ig1RwrwD83Heo-5" value="&lt;font style=&quot;font-size: 14px;&quot;&gt;Expanded KG&lt;/font&gt;" style="rounded=1;whiteSpace=wrap;html=1;fillColor=#e1d5e7;strokeColor=#9673a6;strokeWidth=3;" parent="1" vertex="1">
          <mxGeometry x="840" y="440" width="80" height="60" as="geometry" />
        </mxCell>
        <mxCell id="L9gKy82ig1RwrwD83Heo-14" style="edgeStyle=orthogonalEdgeStyle;rounded=0;orthogonalLoop=1;jettySize=auto;html=1;exitX=1;exitY=0.5;exitDx=0;exitDy=0;entryX=0;entryY=0.5;entryDx=0;entryDy=0;" parent="1" source="L9gKy82ig1RwrwD83Heo-6" target="L9gKy82ig1RwrwD83Heo-1" edge="1">
          <mxGeometry relative="1" as="geometry" />
        </mxCell>
        <mxCell id="L9gKy82ig1RwrwD83Heo-19" style="edgeStyle=orthogonalEdgeStyle;rounded=0;orthogonalLoop=1;jettySize=auto;html=1;exitX=0.5;exitY=1;exitDx=0;exitDy=0;entryX=0.5;entryY=0;entryDx=0;entryDy=0;" parent="1" source="L9gKy82ig1RwrwD83Heo-6" target="L9gKy82ig1RwrwD83Heo-10" edge="1">
          <mxGeometry relative="1" as="geometry" />
        </mxCell>
        <mxCell id="L9gKy82ig1RwrwD83Heo-6" value="&lt;font style=&quot;font-size: 14px;&quot;&gt;Similarity matching with UMLS&lt;/font&gt;&lt;div&gt;&lt;font&gt;&lt;span style=&quot;font-size: 14px;&quot;&gt;(embedding-based)&lt;/span&gt;&lt;br&gt;&lt;/font&gt;&lt;/div&gt;" style="rounded=1;whiteSpace=wrap;html=1;fillColor=#fff2cc;strokeColor=#d6b656;" parent="1" vertex="1">
          <mxGeometry x="157" y="440" width="150" height="60" as="geometry" />
        </mxCell>
        <mxCell id="L9gKy82ig1RwrwD83Heo-13" style="edgeStyle=orthogonalEdgeStyle;rounded=0;orthogonalLoop=1;jettySize=auto;html=1;exitX=1;exitY=0.5;exitDx=0;exitDy=0;entryX=0;entryY=0.5;entryDx=0;entryDy=0;" parent="1" source="L9gKy82ig1RwrwD83Heo-7" target="L9gKy82ig1RwrwD83Heo-6" edge="1">
          <mxGeometry relative="1" as="geometry" />
        </mxCell>
        <mxCell id="L9gKy82ig1RwrwD83Heo-20" style="edgeStyle=orthogonalEdgeStyle;rounded=0;orthogonalLoop=1;jettySize=auto;html=1;exitX=0.5;exitY=0;exitDx=0;exitDy=0;entryX=0;entryY=0.5;entryDx=0;entryDy=0;" parent="1" source="L9gKy82ig1RwrwD83Heo-7" target="L9gKy82ig1RwrwD83Heo-11" edge="1">
          <mxGeometry relative="1" as="geometry" />
        </mxCell>
        <mxCell id="L9gKy82ig1RwrwD83Heo-7" value="&lt;font style=&quot;font-size: 14px;&quot;&gt;Entity discovery with LLM&lt;/font&gt;" style="rounded=1;whiteSpace=wrap;html=1;fillColor=#d5e8d4;strokeColor=#82b366;" parent="1" vertex="1">
          <mxGeometry x="53" y="440" width="80" height="60" as="geometry" />
        </mxCell>
        <mxCell id="L9gKy82ig1RwrwD83Heo-12" style="edgeStyle=orthogonalEdgeStyle;rounded=0;orthogonalLoop=1;jettySize=auto;html=1;exitX=1;exitY=0.5;exitDx=0;exitDy=0;entryX=0;entryY=0.5;entryDx=0;entryDy=0;" parent="1" source="L9gKy82ig1RwrwD83Heo-8" target="L9gKy82ig1RwrwD83Heo-7" edge="1">
          <mxGeometry relative="1" as="geometry" />
        </mxCell>
        <mxCell id="L9gKy82ig1RwrwD83Heo-8" value="&lt;font style=&quot;font-size: 14px;&quot;&gt;Train dataset: high-qulaity texts&lt;/font&gt;" style="rounded=1;whiteSpace=wrap;html=1;fillColor=#e1d5e7;strokeColor=#9673a6;strokeWidth=3;" parent="1" vertex="1">
          <mxGeometry x="-72" y="440" width="100" height="60" as="geometry" />
        </mxCell>
        <mxCell id="cYqgsdA6pGNdtBvXLkFi-1" style="edgeStyle=orthogonalEdgeStyle;rounded=0;orthogonalLoop=1;jettySize=auto;html=1;exitX=1;exitY=0.5;exitDx=0;exitDy=0;" edge="1" parent="1" source="L9gKy82ig1RwrwD83Heo-10" target="L9gKy82ig1RwrwD83Heo-1">
          <mxGeometry relative="1" as="geometry" />
        </mxCell>
        <mxCell id="L9gKy82ig1RwrwD83Heo-10" value="&lt;font style=&quot;font-size: 14px;&quot;&gt;Seed KG&lt;/font&gt;" style="rounded=1;whiteSpace=wrap;html=1;fillColor=#e1d5e7;strokeColor=#9673a6;strokeWidth=3;" parent="1" vertex="1">
          <mxGeometry x="206" y="530" width="80" height="60" as="geometry" />
        </mxCell>
        <mxCell id="L9gKy82ig1RwrwD83Heo-21" style="edgeStyle=orthogonalEdgeStyle;rounded=0;orthogonalLoop=1;jettySize=auto;html=1;exitX=1;exitY=0.5;exitDx=0;exitDy=0;entryX=0.5;entryY=0;entryDx=0;entryDy=0;" parent="1" source="L9gKy82ig1RwrwD83Heo-11" target="L9gKy82ig1RwrwD83Heo-2" edge="1">
          <mxGeometry relative="1" as="geometry" />
        </mxCell>
        <mxCell id="L9gKy82ig1RwrwD83Heo-11" value="&lt;font style=&quot;font-size: 14px;&quot;&gt;Relation matching with LLM&lt;/font&gt;" style="rounded=1;whiteSpace=wrap;html=1;fillColor=#d5e8d4;strokeColor=#82b366;" parent="1" vertex="1">
          <mxGeometry x="265" y="350" width="80" height="60" as="geometry" />
        </mxCell>
        <mxCell id="L9gKy82ig1RwrwD83Heo-26" value="" style="rounded=1;whiteSpace=wrap;html=1;fillColor=#d5e8d4;strokeColor=#82b366;" parent="1" vertex="1">
          <mxGeometry x="397" y="541" width="40" height="30" as="geometry" />
        </mxCell>
        <mxCell id="L9gKy82ig1RwrwD83Heo-27" value="&lt;font style=&quot;font-size: 13px;&quot;&gt;LLM-based step&lt;/font&gt;" style="text;html=1;align=center;verticalAlign=middle;whiteSpace=wrap;rounded=0;" parent="1" vertex="1">
          <mxGeometry x="441" y="541" width="101" height="30" as="geometry" />
        </mxCell>
        <mxCell id="L9gKy82ig1RwrwD83Heo-28" value="" style="rounded=1;whiteSpace=wrap;html=1;fillColor=#ffe6cc;strokeColor=#d79b00;" parent="1" vertex="1">
          <mxGeometry x="567" y="541" width="40" height="30" as="geometry" />
        </mxCell>
        <mxCell id="L9gKy82ig1RwrwD83Heo-29" value="&lt;font&gt;&lt;font size=&quot;2&quot;&gt;GraphMERT-based step&lt;/font&gt;&lt;/font&gt;" style="text;html=1;align=center;verticalAlign=middle;whiteSpace=wrap;rounded=0;" parent="1" vertex="1">
          <mxGeometry x="611" y="541" width="101" height="30" as="geometry" />
        </mxCell>
        <mxCell id="L9gKy82ig1RwrwD83Heo-30" value="" style="rounded=1;whiteSpace=wrap;html=1;fillColor=#fff2cc;strokeColor=#d6b656;" parent="1" vertex="1">
          <mxGeometry x="727" y="541" width="40" height="30" as="geometry" />
        </mxCell>
        <mxCell id="L9gKy82ig1RwrwD83Heo-31" value="&lt;font style=&quot;font-size: 13px;&quot;&gt;Embedding-based step&lt;/font&gt;" style="text;html=1;align=center;verticalAlign=middle;whiteSpace=wrap;rounded=0;" parent="1" vertex="1">
          <mxGeometry x="770" y="541" width="144" height="30" as="geometry" />
        </mxCell>
        <mxCell id="L9gKy82ig1RwrwD83Heo-33" value="" style="rounded=1;whiteSpace=wrap;html=1;fillColor=#e1d5e7;strokeColor=#9673a6;strokeWidth=3;" parent="1" vertex="1">
          <mxGeometry x="397" y="590" width="40" height="30" as="geometry" />
        </mxCell>
        <mxCell id="L9gKy82ig1RwrwD83Heo-34" value="&lt;font style=&quot;font-size: 13px;&quot;&gt;Input/output data&lt;/font&gt;" style="text;html=1;align=center;verticalAlign=middle;whiteSpace=wrap;rounded=0;" parent="1" vertex="1">
          <mxGeometry x="441" y="590" width="101" height="30" as="geometry" />
        </mxCell>
        <mxCell id="L9gKy82ig1RwrwD83Heo-37" value="&lt;font style=&quot;font-size: 13px;&quot;&gt;Arrows indicate temporal progression&lt;/font&gt;" style="text;html=1;align=left;verticalAlign=middle;whiteSpace=wrap;rounded=0;" parent="1" vertex="1">
          <mxGeometry x="624" y="579" width="235" height="50" as="geometry" />
        </mxCell>
        <mxCell id="L9gKy82ig1RwrwD83Heo-38" value="" style="endArrow=classic;html=1;rounded=0;" parent="1" edge="1">
          <mxGeometry width="50" height="50" relative="1" as="geometry">
            <mxPoint x="578" y="604.58" as="sourcePoint" />
            <mxPoint x="619" y="604.58" as="targetPoint" />
          </mxGeometry>
        </mxCell>
      </root>
    </mxGraphModel>
  </diagram>
</mxfile>
